<?xml version="1.0" encoding="UTF-8" standalone="no"?>
<!DOCTYPE svg PUBLIC "-//W3C//DTD SVG 1.1//EN" "http://www.w3.org/Graphics/SVG/1.1/DTD/svg11.dtd">
<svg width="100%" height="100%" viewBox="0 0 3834 1113" version="1.1" xmlns="http://www.w3.org/2000/svg" xmlns:xlink="http://www.w3.org/1999/xlink" xml:space="preserve" xmlns:serif="http://www.serif.com/" style="fill-rule:evenodd;clip-rule:evenodd;stroke-linejoin:round;stroke-miterlimit:2;">
    <g id="scwlkr_full_transparent" transform="matrix(0.92,0,0,0.267,0,1168.125)">
        <rect x="0" y="-4375" width="4166.667" height="4166.667" style="fill:none;"/>
        <g transform="matrix(1.414926,0,0,4.8754,-192.577466,-26867.746731)">
            <g transform="matrix(1,0,0,1,20.437606,0)">
                <path d="M327.533,5304.333C285.222,5304.333 248.2,5297.644 216.467,5284.267C184.733,5270.889 160,5252.378 142.267,5228.733C124.533,5205.089 115.667,5177.4 115.667,5145.667L255.667,5145.667C255.667,5160.6 262.356,5172.578 275.733,5181.6C289.111,5190.622 306.378,5195.133 327.533,5195.133L368.6,5195.133C394.111,5195.133 413.556,5190.467 426.933,5181.133C440.311,5171.8 447,5158.733 447,5141.933C447,5126.378 441.089,5114.4 429.267,5106C417.444,5097.6 399.089,5091.844 374.2,5088.733L314.467,5081.267C250.378,5073.178 203.711,5057.622 174.467,5034.6C145.222,5011.578 130.6,4976.422 130.6,4929.133C130.6,4879.356 147.711,4840.778 181.933,4813.4C216.156,4786.022 266.244,4772.333 332.2,4772.333L367.667,4772.333C430.511,4772.333 480.6,4786.022 517.933,4813.4C555.267,4840.778 573.933,4877.489 573.933,4923.533L433.933,4923.533C433.933,4911.089 427.867,4900.978 415.733,4893.2C403.6,4885.422 387.578,4881.533 367.667,4881.533L332.2,4881.533C309.178,4881.533 292.378,4885.422 281.8,4893.2C271.222,4900.978 265.933,4912.644 265.933,4928.2C265.933,4942.511 270.756,4953.4 280.4,4960.867C290.044,4968.333 305.444,4973.622 326.6,4976.733L391,4985.133C455.711,4993.222 503.778,5009.4 535.2,5033.667C566.622,5057.933 582.333,5094.022 582.333,5141.933C582.333,5194.2 564.289,5234.333 528.2,5262.333C492.111,5290.333 438.911,5304.333 368.6,5304.333L327.533,5304.333Z" style="fill:white;fill-rule:nonzero;"/>
            </g>
            <path d="M911.791,5304.333C866.369,5304.333 826.547,5295.778 792.325,5278.667C758.103,5261.556 731.658,5237.6 712.991,5206.8C694.325,5176 684.991,5140.067 684.991,5099L684.991,4977.667C684.991,4935.978 694.325,4899.889 712.991,4869.4C731.658,4838.911 758.103,4815.111 792.325,4798C826.547,4780.889 866.369,4772.333 911.791,4772.333C979.614,4772.333 1033.747,4789.444 1074.191,4823.667C1114.636,4857.889 1136.103,4904.556 1138.591,4963.667L998.591,4963.667C996.725,4941.889 988.169,4924.778 972.925,4912.333C957.68,4899.889 937.303,4893.667 911.791,4893.667C883.791,4893.667 862.325,4900.822 847.391,4915.133C832.458,4929.444 824.991,4950.289 824.991,4977.667L824.991,5099C824.991,5125.756 832.458,5146.444 847.391,5161.067C862.325,5175.689 883.791,5183 911.791,5183C937.303,5183 957.68,5176.933 972.925,5164.8C988.169,5152.667 996.725,5135.4 998.591,5113L1138.591,5113C1136.103,5172.111 1114.636,5218.778 1074.191,5253C1033.747,5287.222 979.614,5304.333 911.791,5304.333Z" style="fill:white;fill-rule:nonzero;"/>
            <g transform="matrix(1,0,0,1,22.495728,-0)">
                <path d="M1272.983,5295L1198.316,4781.667L1310.316,4781.667L1347.65,5061.667C1350.761,5082.2 1353.405,5105.533 1355.583,5131.667C1357.761,5157.8 1359.472,5179.267 1360.716,5196.067C1362.583,5179.267 1365.227,5157.956 1368.65,5132.133C1372.072,5106.311 1375.338,5082.822 1378.45,5061.667L1421.383,4781.667L1518.45,4781.667L1559.516,5061.667C1562.627,5082.822 1565.894,5106.467 1569.316,5132.6C1572.738,5158.733 1575.383,5180.2 1577.25,5197C1578.494,5179.578 1580.516,5157.644 1583.316,5131.2C1586.116,5104.756 1588.761,5081.578 1591.25,5061.667L1630.45,4781.667L1739.65,4781.667L1664.05,5295L1524.05,5295L1485.783,5005.667C1483.294,4988.244 1480.494,4967.4 1477.383,4943.133C1474.272,4918.867 1471.783,4898.644 1469.916,4882.467C1467.427,4898.644 1464.627,4918.867 1461.516,4943.133C1458.405,4967.4 1455.605,4988.244 1453.116,5005.667L1413.916,5295L1272.983,5295Z" style="fill:white;fill-rule:nonzero;"/>
            </g>
            <g transform="matrix(1,0,0,1,-84.329061,0)">
                <path d="M2112.974,5468C2076.885,5468 2045.152,5460.378 2017.774,5445.133C1990.397,5429.889 1969.085,5408.578 1953.841,5381.2C1938.597,5353.822 1930.974,5322.089 1930.974,5286L1930.974,4739.667L1742.708,4739.667L1758.708,4613.667L2070.974,4613.667L2070.974,5286C2070.974,5302.8 2076.108,5316.333 2086.374,5326.6C2096.641,5336.867 2110.174,5342 2126.974,5342L2652.708,5340L2723.708,5466.007L2112.974,5468Z" style="fill:rgb(35,206,107);fill-rule:nonzero;"/>
            </g>
            <g transform="matrix(1,0,0,1,-305.220516,0)">
                <path d="M2373.366,5295L2373.366,4613.667L2513.366,4613.667L2513.366,4975.8L2582.432,4975.8L2689.766,4781.667L2845.632,4781.667L2702.832,5032.733L2848.432,5295L2689.766,5295L2581.499,5093.4L2513.366,5093.4L2513.366,5295L2373.366,5295Z" style="fill:white;fill-rule:nonzero;"/>
            </g>
            <g transform="matrix(1,0,0,1,-320.058122,0)">
                <path d="M2945.491,5295L2945.491,4781.667L3076.157,4781.667L3076.157,4879.667L3111.624,4879.667L3071.491,4939.4C3071.491,4884.022 3084.246,4842.333 3109.757,4814.333C3135.268,4786.333 3172.602,4772.333 3221.757,4772.333C3278.379,4772.333 3322.402,4789.444 3353.824,4823.667C3385.246,4857.889 3400.957,4906.111 3400.957,4968.333L3400.957,5010.333L3251.624,5010.333L3251.624,4977.667C3251.624,4949.667 3244.002,4927.889 3228.757,4912.333C3213.513,4896.778 3193.135,4889 3167.624,4889C3140.868,4889 3120.491,4896.778 3106.491,4912.333C3092.491,4927.889 3085.491,4949.667 3085.491,4977.667L3085.491,5295L2945.491,5295Z" style="fill:white;fill-rule:nonzero;"/>
            </g>
        </g>
    </g>
</svg>
